<svg width="24" height="24" viewBox="0 0 24 24" fill="none" xmlns="http://www.w3.org/2000/svg">
<path d="M17.1888 11.9975C18.7415 11.9975 20 13.0044 20 14.2468V14.8223C20 15.7167 19.6005 16.5817 18.8736 17.2612C16.9118 19.095 13.9277 20 9.99593 20C6.06343 20 3.08082 19.0947 1.12289 17.2601C0.39815 16.5811 0 15.7174 0 14.8245V14.2468C0 13.0044 1.2586 11.9975 2.81118 11.9975H17.1888ZM17.1888 13.4977H2.81118C2.29417 13.4977 1.87506 13.8331 1.87506 14.2468V14.8245C1.87506 15.3603 2.11395 15.8785 2.54878 16.2858C4.11547 17.7538 6.5729 18.4997 9.99593 18.4997C13.4189 18.4997 15.8785 17.7538 17.449 16.2856C17.8853 15.8779 18.1249 15.3589 18.1249 14.8223V14.2468C18.1249 13.8331 17.7058 13.4977 17.1888 13.4977ZM9.99593 0C13.4478 0 16.2461 2.23898 16.2461 5.00089C16.2461 7.76282 13.4478 10.0018 9.99593 10.0018C6.544 10.0018 3.74568 7.76282 3.74568 5.00089C3.74568 2.23898 6.544 0 9.99593 0ZM9.99593 1.50027C7.5796 1.50027 5.62074 3.06756 5.62074 5.00089C5.62074 6.93424 7.5796 8.50154 9.99593 8.50154C12.4123 8.50154 14.3711 6.93424 14.3711 5.00089C14.3711 3.06756 12.4123 1.50027 9.99593 1.50027Z" fill="#212121"/>
</svg>
